<!--?xml version="1.0" standalone="no"?-->
              <svg id="sw-js-blob-svg" viewBox="0 0 100 100" xmlns="http://www.w3.org/2000/svg" version="1.1">
                    <defs> 
                        <linearGradient id="sw-gradient" x1="0" x2="1" y1="1" y2="0">
                            <stop id="stop1" stop-color="white" offset="0%"></stop>
                            <stop id="stop2" stop-color="white" offset="100%"></stop>
                        </linearGradient>
                    </defs>
                <path fill="url(#sw-gradient)" d="M21.4,-36.3C27.8,-33.5,32.9,-27.7,36.6,-21.2C40.3,-14.7,42.6,-7.3,42.7,0.1C42.8,7.5,40.9,15,37.1,21.4C33.3,27.8,27.8,33.1,21.3,36.4C14.8,39.7,7.4,41.1,0.4,40.3C-6.5,39.5,-13,36.7,-19.8,33.5C-26.6,30.4,-33.6,26.9,-37,21.3C-40.4,15.7,-40.1,7.8,-40,0C-40,-7.8,-40.2,-15.5,-36.9,-21.3C-33.6,-27,-26.7,-30.8,-20,-33.4C-13.3,-36,-6.6,-37.4,0.4,-38.2C7.5,-38.9,15.1,-39.1,21.4,-36.3Z" width="100%" height="100%" transform="translate(50 50)" stroke-width="0" style="transition: all 0.3s ease 0s;" stroke="url(#sw-gradient)"></path>
              </svg>