<svg id="visual" viewBox="0 0 675 900" width="675" height="900" xmlns="http://www.w3.org/2000/svg" xmlns:xlink="http://www.w3.org/1999/xlink" version="1.1"><rect x="0" y="0" width="675" height="900" fill="#f1eacf"></rect><path d="M191 0L213 0L213 60L147 60L147 120L163 120L163 180L166 180L166 240L205 240L205 300L216 300L216 360L184 360L184 420L181 420L181 480L150 480L150 540L148 540L148 600L177 600L177 660L167 660L167 720L207 720L207 780L161 780L161 840L168 840L168 900L0 900L0 840L0 840L0 780L0 780L0 720L0 720L0 660L0 660L0 600L0 600L0 540L0 540L0 480L0 480L0 420L0 420L0 360L0 360L0 300L0 300L0 240L0 240L0 180L0 180L0 120L0 120L0 60L0 60L0 0L0 0Z" fill="#cf8651"></path><path d="M133 0L144 0L144 60L98 60L98 120L140 120L140 180L94 180L94 240L141 240L141 300L101 300L101 360L94 360L94 420L154 420L154 480L116 480L116 540L121 540L121 600L87 600L87 660L159 660L159 720L150 720L150 780L89 780L89 840L138 840L138 900L0 900L0 840L0 840L0 780L0 780L0 720L0 720L0 660L0 660L0 600L0 600L0 540L0 540L0 480L0 480L0 420L0 420L0 360L0 360L0 300L0 300L0 240L0 240L0 180L0 180L0 120L0 120L0 60L0 60L0 0L0 0Z" fill="#d07333"></path><path d="M68 0L82 0L82 60L74 60L74 120L51 120L51 180L69 180L69 240L92 240L92 300L57 300L57 360L96 360L96 420L48 420L48 480L83 480L83 540L100 540L100 600L74 600L74 660L97 660L97 720L95 720L95 780L62 780L62 840L51 840L51 900L0 900L0 840L0 840L0 780L0 780L0 720L0 720L0 660L0 660L0 600L0 600L0 540L0 540L0 480L0 480L0 420L0 420L0 360L0 360L0 300L0 300L0 240L0 240L0 180L0 180L0 120L0 120L0 60L0 60L0 0L0 0Z" fill="#d15f0e"></path></svg>